<svg width="23" height="23" viewBox="0 0 23 23" fill="none" xmlns="http://www.w3.org/2000/svg">
<path d="M11.5 12.4583C12.0292 12.4583 12.4583 12.0293 12.4583 11.5C12.4583 10.9707 12.0292 10.5417 11.5 10.5417C10.9707 10.5417 10.5416 10.9707 10.5416 11.5C10.5416 12.0293 10.9707 12.4583 11.5 12.4583Z" stroke="white" stroke-width="2" stroke-linecap="round" stroke-linejoin="round"/>
<path d="M18.2083 12.4583C18.7376 12.4583 19.1667 12.0293 19.1667 11.5C19.1667 10.9707 18.7376 10.5417 18.2083 10.5417C17.6791 10.5417 17.25 10.9707 17.25 11.5C17.25 12.0293 17.6791 12.4583 18.2083 12.4583Z" stroke="white" stroke-width="2" stroke-linecap="round" stroke-linejoin="round"/>
<path d="M4.79171 12.4583C5.32098 12.4583 5.75004 12.0293 5.75004 11.5C5.75004 10.9707 5.32098 10.5417 4.79171 10.5417C4.26243 10.5417 3.83337 10.9707 3.83337 11.5C3.83337 12.0293 4.26243 12.4583 4.79171 12.4583Z" stroke="white" stroke-width="2" stroke-linecap="round" stroke-linejoin="round"/>
</svg>
